<svg width="504" height="508" viewBox="0 0 504 508" fill="none" xmlns="http://www.w3.org/2000/svg">
<g filter="url(#filter0_d_9_3)">
<ellipse cx="251.5" cy="250" rx="247.5" ry="250" fill="white"/>
<path d="M457.5 273C457.5 273 461.432 308 457.5 349C453.569 390 430.5 419.5 397.5 428.5C364.5 437.5 317 433.5 317 433.5L356 463" stroke="black" stroke-width="8"/>
<path d="M51.7474 220C51.7474 220 47.8158 185 51.7474 144C55.6789 103 78.7473 73.5 111.747 64.5C144.747 55.5 192.247 59.5 192.247 59.5L153.247 30" stroke="black" stroke-width="8"/>
<path d="M113 440C113 440 113 214.471 113 175.686C113 136.901 117.034 129 151.804 129C186.574 129 464 129 464 129" stroke="black" stroke-width="16"/>
<path d="M395 60C395 60 395 303.08 395 331.321C395 359.561 381.686 371 351.428 371C321.169 371 44 371 44 371" stroke="black" stroke-width="16"/>
<path d="M350 232.925C350 233.733 348.987 234.137 346.962 234.137C344.937 234.137 343.789 233.598 343.519 232.521C341.359 224.037 338.793 219.122 335.823 217.775C328.667 215.082 316.785 213.668 300.177 213.533C297.612 213.803 295.857 214.543 294.911 215.755C293.966 216.967 293.494 219.324 293.494 222.825V271.303C302 271.168 310.371 270.764 318.608 270.091C326.979 269.418 331.502 268.879 332.177 268.475L334.203 256.558C334.338 255.615 335.148 255.144 336.633 255.144C339.468 255.144 340.751 255.75 340.481 256.962C339.806 262.213 339.468 268.138 339.468 274.737C339.468 281.335 339.806 287.26 340.481 292.512C340.751 293.589 339.738 294.128 337.443 294.128C335.283 294.128 334.203 293.724 334.203 292.916L331.975 280.797C331.165 280.393 326.641 279.854 318.405 279.181C310.304 278.373 302 277.901 293.494 277.767V315.741C293.494 327.591 294.911 333.516 297.747 333.516H309.494C310.574 333.516 311.114 334.863 311.114 337.556C311.114 340.249 310.574 341.596 309.494 341.596L283.975 341.394L255.62 342C254.54 342 254 340.855 254 338.566C254 336.277 254.54 335.132 255.62 335.132H264.329C267.705 335.132 269.932 334.526 271.013 333.314C272.093 331.968 272.633 329.477 272.633 325.841V230.097C272.633 218.247 271.215 212.321 268.38 212.321H256.633C255.553 212.321 255.013 211.244 255.013 209.09C255.013 206.8 255.553 205.656 256.633 205.656L282.152 206.06H342.101V201.818C342.101 200.606 343.046 200 344.937 200C346.962 200 347.975 200.606 347.975 201.818L350 232.925Z" fill="black"/>
<path d="M254 195.011C254 195.871 252.903 196.3 250.709 196.3C248.515 196.3 247.271 195.727 246.979 194.582C244.639 185.56 241.859 180.334 238.641 178.902C230.889 176.038 218.017 174.534 200.025 174.391C197.246 174.678 195.345 175.465 194.321 176.754C193.297 178.043 192.785 180.549 192.785 184.272V235.822C202 235.679 211.069 235.249 219.992 234.533C229.06 233.817 233.961 233.245 234.692 232.815L236.886 220.142C237.032 219.14 237.91 218.639 239.519 218.639C242.591 218.639 243.98 219.283 243.688 220.572C242.956 226.156 242.591 232.457 242.591 239.474C242.591 246.49 242.956 252.791 243.688 258.376C243.98 259.521 242.883 260.094 240.397 260.094C238.056 260.094 236.886 259.664 236.886 258.805L234.473 245.917C233.595 245.488 228.695 244.915 219.772 244.199C210.996 243.34 202 242.839 192.785 242.696V283.077C192.785 295.678 194.321 301.979 197.392 301.979H210.118C211.288 301.979 211.873 303.411 211.873 306.275C211.873 309.138 211.288 310.57 210.118 310.57L182.473 310.356L151.755 311C150.585 311 150 309.783 150 307.349C150 304.914 150.585 303.697 151.755 303.697H161.19C164.847 303.697 167.26 303.053 168.43 301.764C169.601 300.332 170.186 297.683 170.186 293.816V192.004C170.186 179.403 168.65 173.102 165.578 173.102H152.852C151.682 173.102 151.097 171.957 151.097 169.666C151.097 167.231 151.682 166.014 152.852 166.014L180.498 166.444H245.443V161.933C245.443 160.644 246.467 160 248.515 160C250.709 160 251.806 160.644 251.806 161.933L254 195.011Z" fill="black"/>
</g>
<defs>
<filter id="filter0_d_9_3" x="0" y="0" width="508" height="508" filterUnits="userSpaceOnUse" color-interpolation-filters="sRGB">
<feFlood flood-opacity="0" result="BackgroundImageFix"/>
<feColorMatrix in="SourceAlpha" type="matrix" values="0 0 0 0 0 0 0 0 0 0 0 0 0 0 0 0 0 0 127 0" result="hardAlpha"/>
<feOffset dy="4"/>
<feGaussianBlur stdDeviation="2"/>
<feComposite in2="hardAlpha" operator="out"/>
<feColorMatrix type="matrix" values="0 0 0 0 0 0 0 0 0 0 0 0 0 0 0 0 0 0 0.25 0"/>
<feBlend mode="normal" in2="BackgroundImageFix" result="effect1_dropShadow_9_3"/>
<feBlend mode="normal" in="SourceGraphic" in2="effect1_dropShadow_9_3" result="shape"/>
</filter>
</defs>
</svg>
