<svg width="500" height="500" viewBox="0 0 500 500" fill="none" xmlns="http://www.w3.org/2000/svg">
<g filter="url(#filter0_d_9_3)">
<path d="M460.5 280C460.5 280 464.432 315 460.5 356C456.569 397 433.5 426.5 400.5 435.5C367.5 444.5 320 440.5 320 440.5L359 470" stroke="black" stroke-width="8"/>
<path d="M61 218.5C61 218.5 57.0684 183.5 61 142.5C64.9315 101.5 88 72 121 63C154 54 201.5 58 201.5 58L162.5 28.5" stroke="black" stroke-width="8"/>
<path d="M129 440C129 440 129 214.471 129 175.686C129 136.901 133.034 129 167.804 129C202.574 129 480 129 480 129" stroke="black" stroke-width="16"/>
<path d="M391 60C391 60 391 303.08 391 331.321C391 359.561 376.928 371 344.945 371C312.962 371 20 371 20 371" stroke="black" stroke-width="16"/>
<path d="M360 222.925C360 223.733 358.987 224.137 356.962 224.137C354.937 224.137 353.789 223.598 353.519 222.521C351.359 214.037 348.793 209.122 345.823 207.775C338.667 205.082 326.785 203.668 310.177 203.533C307.612 203.803 305.857 204.543 304.911 205.755C303.966 206.967 303.494 209.324 303.494 212.825V261.303C312 261.168 320.371 260.764 328.608 260.091C336.979 259.418 341.502 258.879 342.177 258.475L344.203 246.558C344.338 245.615 345.148 245.144 346.633 245.144C349.468 245.144 350.751 245.75 350.481 246.962C349.806 252.213 349.468 258.138 349.468 264.737C349.468 271.335 349.806 277.26 350.481 282.512C350.751 283.589 349.738 284.128 347.443 284.128C345.283 284.128 344.203 283.724 344.203 282.916L341.975 270.797C341.165 270.393 336.641 269.854 328.405 269.181C320.304 268.373 312 267.901 303.494 267.767V305.741C303.494 317.591 304.911 323.516 307.747 323.516H319.494C320.574 323.516 321.114 324.863 321.114 327.556C321.114 330.249 320.574 331.596 319.494 331.596L293.975 331.394L265.62 332C264.54 332 264 330.855 264 328.566C264 326.277 264.54 325.132 265.62 325.132H274.329C277.705 325.132 279.932 324.526 281.013 323.314C282.093 321.968 282.633 319.477 282.633 315.841V220.097C282.633 208.247 281.215 202.321 278.38 202.321H266.633C265.553 202.321 265.013 201.244 265.013 199.09C265.013 196.8 265.553 195.656 266.633 195.656L292.152 196.06H352.101V191.818C352.101 190.606 353.046 190 354.937 190C356.962 190 357.975 190.606 357.975 191.818L360 222.925Z" fill="black"/>
<path d="M264 189.011C264 189.871 262.903 190.3 260.709 190.3C258.515 190.3 257.271 189.727 256.979 188.582C254.639 179.56 251.859 174.334 248.641 172.902C240.889 170.038 228.017 168.534 210.025 168.391C207.246 168.678 205.345 169.465 204.321 170.754C203.297 172.043 202.785 174.549 202.785 178.272V229.822C212 229.679 221.069 229.249 229.992 228.533C239.06 227.817 243.961 227.245 244.692 226.815L246.886 214.142C247.032 213.14 247.91 212.639 249.519 212.639C252.591 212.639 253.98 213.283 253.688 214.572C252.956 220.156 252.591 226.457 252.591 233.474C252.591 240.49 252.956 246.791 253.688 252.376C253.98 253.521 252.883 254.094 250.397 254.094C248.056 254.094 246.886 253.664 246.886 252.805L244.473 239.917C243.595 239.488 238.695 238.915 229.772 238.199C220.996 237.34 212 236.839 202.785 236.696V277.077C202.785 289.678 204.321 295.979 207.392 295.979H220.118C221.288 295.979 221.873 297.411 221.873 300.275C221.873 303.138 221.288 304.57 220.118 304.57L192.473 304.356L161.755 305C160.585 305 160 303.783 160 301.349C160 298.914 160.585 297.697 161.755 297.697H171.19C174.847 297.697 177.26 297.053 178.43 295.764C179.601 294.332 180.186 291.683 180.186 287.817V186.004C180.186 173.403 178.65 167.102 175.578 167.102H162.852C161.682 167.102 161.097 165.957 161.097 163.666C161.097 161.231 161.682 160.014 162.852 160.014L190.498 160.444H255.443V155.933C255.443 154.644 256.467 154 258.515 154C260.709 154 261.806 154.644 261.806 155.933L264 189.011Z" fill="black"/>
</g>
<defs>
<filter id="filter0_d_9_3" x="-4" y="0" width="508" height="508" filterUnits="userSpaceOnUse" color-interpolation-filters="sRGB">
<feFlood flood-opacity="0" result="BackgroundImageFix"/>
<feColorMatrix in="SourceAlpha" type="matrix" values="0 0 0 0 0 0 0 0 0 0 0 0 0 0 0 0 0 0 127 0" result="hardAlpha"/>
<feOffset dy="4"/>
<feGaussianBlur stdDeviation="2"/>
<feComposite in2="hardAlpha" operator="out"/>
<feColorMatrix type="matrix" values="0 0 0 0 0 0 0 0 0 0 0 0 0 0 0 0 0 0 0.25 0"/>
<feBlend mode="normal" in2="BackgroundImageFix" result="effect1_dropShadow_9_3"/>
<feBlend mode="normal" in="SourceGraphic" in2="effect1_dropShadow_9_3" result="shape"/>
</filter>
</defs>
</svg>
